<svg xmlns="http://www.w3.org/2000/svg" viewBox="0 0 180 180" fill="none" shape-rendering="auto"><metadata xmlns:rdf="http://www.w3.org/1999/02/22-rdf-syntax-ns#" xmlns:xsi="http://www.w3.org/2001/XMLSchema-instance" xmlns:dc="http://purl.org/dc/elements/1.1/" xmlns:dcterms="http://purl.org/dc/terms/"><rdf:RDF><rdf:Description><dc:title>Bottts</dc:title><dc:creator>Pablo Stanley</dc:creator><dc:source xsi:type="dcterms:URI">https://bottts.com/</dc:source><dcterms:license xsi:type="dcterms:URI">https://bottts.com/</dcterms:license><dc:rights>Remix of „Bottts” (https://bottts.com/) by „Pablo Stanley”, licensed under „Free for personal and commercial use” (https://bottts.com/)</dc:rights></rdf:Description></rdf:RDF></metadata><mask id="viewboxMask"><rect width="180" height="180" rx="0" ry="0" x="0" y="0" fill="#fff" /></mask><g mask="url(#viewboxMask)"><g transform="translate(0 66)"><mask id="sidesSquareAssymetric-a" style="mask-type:luminance" maskUnits="userSpaceOnUse" x="10" y="8" width="165" height="60"><g fill="#fff"><rect x="10" y="31" width="36" height="30" rx="4"/><rect x="20" y="15" width="26" height="30" rx="4"/><rect x="139" y="23" width="36" height="30" rx="4"/><rect x="134" y="8" width="36" height="60" rx="4"/></g></mask><g mask="url(#sidesSquareAssymetric-a)"><path d="M0 0h180v76H0V0Z" fill="#1e88e5"/><path d="M0 0h180v76H0V0Z" fill="#fff" fill-opacity=".3"/><path fill="#000" fill-opacity=".1" d="M0 47h180v29H0z"/><circle cx="161" cy="20" r="5" fill="#fff" fill-opacity=".6"/><circle cx="161" cy="36" r="5" fill="#fff" fill-opacity=".6"/></g></g><g transform="translate(41)"><mask id="topPyramid-a" style="mask-type:luminance" maskUnits="userSpaceOnUse" x="18" y="8" width="64" height="44"><path fill-rule="evenodd" clip-rule="evenodd" d="m50 8 32 44H18L50 8Z" fill="#fff"/></mask><g mask="url(#topPyramid-a)"><path d="M0 0h100v52H0V0Z" fill="#1e88e5"/><path d="M0 0h100v52H0V0Z" fill="#fff" fill-opacity=".3"/><path fill="#fff" fill-opacity=".8" d="M50 4h30v48H50z"/></g></g><g transform="translate(25 44)"><mask id="faceRound02-a" style="mask-type:luminance" maskUnits="userSpaceOnUse" x="0" y="0" width="130" height="120"><path fill-rule="evenodd" clip-rule="evenodd" d="M0 31v-1c.18-.48.4-1.5 1-3 .83-3.06 2.78-6.56 6-10C16.7 6.6 35.17 0 65 0s48.3 6.6 58 17c3.22 3.44 5.17 6.94 6 10 .6 1.5.82 2.52 1 3v40c0-.1-.03.5 0 1a53.93 53.93 0 0 1-1 6c-1.19 6-3.4 11.91-7 17-9.72 16.34-27.74 26-57 26s-47.28-9.66-57-26C4.4 88.91 2.2 83 1 77a53.95 53.95 0 0 1-1-6c.03-.45 0-1.32 0-1V31Z" fill="#fff"/></mask><g mask="url(#faceRound02-a)"><path d="M-4-2h138v124H-4V-2Z" fill="#1e88e5"/><g transform="translate(-1 -1)"><g fill="#000"><path d="M27.3 65.2a2.1 2.1 0 1 0 0-4.2 2.1 2.1 0 0 0 0 4.2ZM35.7 69.41a2.1 2.1 0 1 1-4.2 0 2.1 2.1 0 0 1 4.2 0ZM35.7 82.03a2.1 2.1 0 1 1-4.2 0 2.1 2.1 0 0 1 4.2 0ZM35.7 94.66a2.1 2.1 0 1 1-4.2 0 2.1 2.1 0 0 1 4.2 0ZM34.1 109.2a2.1 2.1 0 1 0 0-4.2 2.1 2.1 0 0 0 0 4.2ZM49.2 107.1a2.1 2.1 0 1 1-4.2 0 2.1 2.1 0 0 1 4.2 0ZM27.3 90.45a2.1 2.1 0 1 0 0-4.2 2.1 2.1 0 0 0 0 4.2ZM29.2 101.1a2.1 2.1 0 1 1-4.2 0 2.1 2.1 0 0 1 4.2 0ZM51.1 103.2a2.1 2.1 0 1 0 0-4.2 2.1 2.1 0 0 0 0 4.2ZM42 88.34a2.1 2.1 0 1 1-4.2 0 2.1 2.1 0 0 1 4.2 0ZM39.9 103.07a2.1 2.1 0 1 0 0-4.2 2.1 2.1 0 0 0 0 4.2ZM29.4 75.72a2.1 2.1 0 1 1-4.2 0 2.1 2.1 0 0 1 4.2 0ZM39.9 77.83a2.1 2.1 0 1 0 0-4.2 2.1 2.1 0 0 0 0 4.2ZM10.5 94.66a2.1 2.1 0 1 1-4.2 0 2.1 2.1 0 0 1 4.2 0ZM8.4 84.14a2.1 2.1 0 1 0 0-4.2 2.1 2.1 0 0 0 0 4.2ZM10.5 107.28a2.1 2.1 0 1 1-4.2 0 2.1 2.1 0 0 1 4.2 0ZM2.1 90.45a2.1 2.1 0 1 0 0-4.2 2.1 2.1 0 0 0 0 4.2ZM4.2 100.97a2.1 2.1 0 1 1-4.2 0 2.1 2.1 0 0 1 4.2 0ZM14.7 90.45a2.1 2.1 0 1 0 0-4.2 2.1 2.1 0 0 0 0 4.2ZM16.8 100.97a2.1 2.1 0 1 1-4.2 0 2.1 2.1 0 0 1 4.2 0ZM8.4 71.52a2.1 2.1 0 1 0 0-4.2 2.1 2.1 0 0 0 0 4.2ZM4.2 75.72a2.1 2.1 0 1 1-4.2 0 2.1 2.1 0 0 1 4.2 0ZM14.7 65.2a2.1 2.1 0 1 0 0-4.2 2.1 2.1 0 0 0 0 4.2ZM16.8 75.72a2.1 2.1 0 1 1-4.2 0 2.1 2.1 0 0 1 4.2 0ZM21 96.76a2.1 2.1 0 1 0 0-4.2 2.1 2.1 0 0 0 0 4.2ZM23.1 82.03a2.1 2.1 0 1 1-4.2 0 2.1 2.1 0 0 1 4.2 0ZM21 109.38a2.1 2.1 0 1 0 0-4.2 2.1 2.1 0 0 0 0 4.2ZM35.7 119.9a2.1 2.1 0 1 1-4.2 0 2.1 2.1 0 0 1 4.2 0ZM27.3 115.69a2.1 2.1 0 1 0 0-4.2 2.1 2.1 0 0 0 0 4.2ZM42 113.59a2.1 2.1 0 1 1-4.2 0 2.1 2.1 0 0 1 4.2 0ZM8.4 122a2.1 2.1 0 1 0 0-4.2 2.1 2.1 0 0 0 0 4.2ZM4.2 113.59a2.1 2.1 0 1 1-4.2 0 2.1 2.1 0 0 1 4.2 0ZM14.7 115.69a2.1 2.1 0 1 0 0-4.2 2.1 2.1 0 0 0 0 4.2ZM23.1 119.9a2.1 2.1 0 1 1-4.2 0 2.1 2.1 0 0 1 4.2 0ZM21 71.52a2.1 2.1 0 1 0 0-4.2 2.1 2.1 0 0 0 0 4.2Z" fill-opacity=".2"/><path d="M117.3 4.2a2.1 2.1 0 1 0 0-4.2 2.1 2.1 0 0 0 0 4.2ZM125.7 8.41a2.1 2.1 0 1 1-4.2 0 2.1 2.1 0 0 1 4.2 0ZM125.7 21.03a2.1 2.1 0 1 1-4.2 0 2.1 2.1 0 0 1 4.2 0ZM125.7 33.66a2.1 2.1 0 1 1-4.2 0 2.1 2.1 0 0 1 4.2 0ZM123.6 48.38a2.1 2.1 0 1 0 0-4.2 2.1 2.1 0 0 0 0 4.2ZM119.4 27.34a2.1 2.1 0 1 1-4.2 0 2.1 2.1 0 0 1 4.2 0ZM117.3 42.07a2.1 2.1 0 1 0 0-4.2 2.1 2.1 0 0 0 0 4.2ZM132 27.34a2.1 2.1 0 1 1-4.2 0 2.1 2.1 0 0 1 4.2 0ZM129.9 42.07a2.1 2.1 0 1 0 0-4.2 2.1 2.1 0 0 0 0 4.2ZM119.4 14.72a2.1 2.1 0 1 1-4.2 0 2.1 2.1 0 0 1 4.2 0ZM129.9 16.83a2.1 2.1 0 1 0 0-4.2 2.1 2.1 0 0 0 0 4.2ZM100.5 33.66a2.1 2.1 0 1 1-4.2 0 2.1 2.1 0 0 1 4.2 0ZM98.4 23.14a2.1 2.1 0 1 0 0-4.2 2.1 2.1 0 0 0 0 4.2ZM100.5 46.28a2.1 2.1 0 1 1-4.2 0 2.1 2.1 0 0 1 4.2 0ZM92.1 29.45a2.1 2.1 0 1 0 0-4.2 2.1 2.1 0 0 0 0 4.2ZM106.8 27.34a2.1 2.1 0 1 1-4.2 0 2.1 2.1 0 0 1 4.2 0ZM104.7 42.07a2.1 2.1 0 1 0 0-4.2 2.1 2.1 0 0 0 0 4.2ZM100.5 8.41a2.1 2.1 0 1 1-4.2 0 2.1 2.1 0 0 1 4.2 0ZM92.1 16.83a2.1 2.1 0 1 0 0-4.2 2.1 2.1 0 0 0 0 4.2ZM106.8 2.1a2.1 2.1 0 1 1-4.2 0 2.1 2.1 0 0 1 4.2 0ZM104.7 16.83a2.1 2.1 0 1 0 0-4.2 2.1 2.1 0 0 0 0 4.2ZM113.1 33.66a2.1 2.1 0 1 1-4.2 0 2.1 2.1 0 0 1 4.2 0ZM111 23.14a2.1 2.1 0 1 0 0-4.2 2.1 2.1 0 0 0 0 4.2ZM113.1 46.28a2.1 2.1 0 1 1-4.2 0 2.1 2.1 0 0 1 4.2 0ZM123.6 61a2.1 2.1 0 1 0 0-4.2 2.1 2.1 0 0 0 0 4.2ZM132 52.59a2.1 2.1 0 1 1-4.2 0 2.1 2.1 0 0 1 4.2 0ZM104.7 54.69a2.1 2.1 0 1 0 0-4.2 2.1 2.1 0 0 0 0 4.2ZM113.1 58.9a2.1 2.1 0 1 1-4.2 0 2.1 2.1 0 0 1 4.2 0ZM111 10.52a2.1 2.1 0 1 0 0-4.2 2.1 2.1 0 0 0 0 4.2Z" fill-opacity=".1"/></g></g></g></g><g transform="translate(52 124)"><g fill="#000" fill-opacity=".6"><rect x="12" y="12" width="4" height="8" rx="2"/><rect x="36" y="12" width="4" height="8" rx="2"/><rect x="24" y="12" width="4" height="8" rx="2"/><rect x="48" y="12" width="4" height="8" rx="2"/><rect x="60" y="12" width="4" height="8" rx="2"/></g></g><g transform="translate(38 76)"><rect y="11" width="104" height="34" rx="17" fill="#000" fill-opacity=".8"/><circle cx="29" cy="28" r="13" fill="#F1EEDA"/><circle cx="75" cy="28" r="13" fill="#F1EEDA"/><rect x="24" y="23" width="10" height="10" rx="2" fill="#000" fill-opacity=".8"/><rect x="70" y="23" width="10" height="10" rx="2" fill="#000" fill-opacity=".8"/></g></g></svg>